HIERARCHY
ROOT Hips
{
	OFFSET 0.00000 0.00000 0.00000
	CHANNELS 6 Xposition Yposition Zposition Yrotation Zrotation Xrotation 
	JOINT Lumbar
	{
		OFFSET 0 0 0
		CHANNELS 3 Zrotation Xrotation Yrotation
		JOINT Neck
		{
			OFFSET 0.00 0.2701 0.00
			CHANNELS 3 Zrotation Xrotation Yrotation
			End Site
			{
				OFFSET 0.00 0.1379 0.00
			}
		}
		JOINT RightShoulder
		{
			OFFSET 0.0119 0.2289 0.1181
			CHANNELS 3 Zrotation Xrotation Yrotation
			JOINT RightElbow
			{
				OFFSET 0.00 -0.1475 0.00
				CHANNELS 2 Zrotation Yrotation
				JOINT RightWrist
				{
					OFFSET 0.00 -0.1605 0.00
					CHANNELS 2 Zrotation Xrotation
					End Site
					{
						OFFSET 0.0040 -0.1068 0.0006
					}
				}
			}
		}
		JOINT LeftShoulder
		{
			OFFSET 0.0119 0.2289 -0.1181
			CHANNELS 3 Zrotation Xrotation Yrotation
			JOINT LeftElbow
			{
				OFFSET 0.00 -0.1475 0.00
				CHANNELS 2 Zrotation Yrotation
				JOINT LeftWrist
				{
					OFFSET 0.00 -0.1605 0.00
					CHANNELS 2 Zrotation Xrotation
					End Site
					{
						OFFSET 0.0040 -0.1068 -0.0006
					}
				}
			}
		}
	}
	JOINT RightHip
	{
		OFFSET 0.0316 -0.0424 0.0458
		CHANNELS 3 Zrotation Xrotation Yrotation
		JOINT RightKnee
		{
			OFFSET 0.00 -0.2438 0.00
			CHANNELS 1 Zrotation
			JOINT RightAnkle
			{
				OFFSET 0.00 -0.2449 0.00
				CHANNELS 3 Zrotation Xrotation Yrotation
				End Site
				{
					OFFSET 0.1237 -0.0542 0.0051
				}
			}
		}
	}
	JOINT LeftHip
	{
		OFFSET 0.0316 -0.0424 -0.0458
		CHANNELS 3 Zrotation Xrotation Yrotation
		JOINT LeftKnee
		{
			OFFSET 0.00 -0.2438 0.00
			CHANNELS 1 Zrotation
			JOINT LeftAnkle
			{
				OFFSET 0.00 -0.2449 0.00
				CHANNELS 3 Zrotation Xrotation Yrotation
				End Site
				{
					OFFSET 0.1237 -0.0542 -0.0051
				}
			}
		}
	}
}
MOTION
Frames: 35
Frame Time: 0.02
-0 0.57926 -0 181.69877 0 -3.7004 1.44719 2.61379 -3.53576 -23.34351 3.13524 2.11911 -22.81089 -70.25994 -78.39763 26.12558 80.00493 -19.58697 -2.70722 -21.82932 72.85779 79.8372 23.53698 -72.43513 -33.89116 1.90044 -2.60697 2.44619 4.61113 -7.13715 -2.18816 -2.75337 -6.35403 -1.55861 4.70031 1.30254 -8.08251 6.14942 3.68258 4.88535
3e-05 0.57926 0 181.72556 0 -3.69771 1.45373 2.61361 -3.54895 -23.34464 3.14775 2.11131 -22.81756 -70.27541 -78.4142 26.12203 80.00138 -19.6044 -2.69584 -21.73012 72.82535 79.73165 23.52728 -72.4235 -33.87855 1.90058 -2.59859 2.44523 4.59819 -7.1589 -2.17546 -2.75434 -6.36037 -1.53742 4.69895 1.27866 -8.11039 6.15233 3.68422 4.88084
6e-05 0.57925 0 181.75215 0 -3.69506 1.46011 2.61354 -3.56201 -23.3456 3.16021 2.10361 -22.82427 -70.29083 -78.43066 26.11858 79.99771 -19.62168 -2.68454 -21.63148 72.79296 79.62669 23.51772 -72.41215 -33.86587 1.90072 -2.59018 2.44426 4.58525 -7.18057 -2.16286 -2.75529 -6.36657 -1.51632 4.69759 1.25501 -8.13807 6.15529 3.68586 4.87632
8e-05 0.57925 1e-05 181.77811 0 -3.69253 1.46602 2.61386 -3.57459 -23.34576 3.17227 2.09625 -22.83139 -70.30597 -78.44703 26.1155 79.99325 -19.6386 -2.67332 -21.53456 72.76083 79.52341 23.50858 -72.40186 -33.85293 1.90082 -2.58156 2.44329 4.57286 -7.20214 -2.15061 -2.7562 -6.37281 -1.49549 4.69623 1.23212 -8.16518 6.1582 3.68744 4.8717
0.00011 0.57924 0 181.80734 0 -3.6894 1.47453 2.61207 -3.58965 -23.34997 3.18608 2.08709 -22.83655 -70.32234 -78.46416 26.11046 79.99264 -19.65748 -2.6615 -21.42911 72.72776 79.41167 23.49715 -72.38606 -33.84154 1.90105 -2.57407 2.44239 4.55834 -7.22423 -2.13661 -2.75738 -6.37946 -1.47334 4.69488 1.20528 -8.19522 6.16106 3.68921 4.86759
0.00014 0.57924 1e-05 181.82967 0 -3.68752 1.47744 2.61474 -3.5995 -23.34575 3.19639 2.08176 -22.84573 -70.33627 -78.47945 26.10955 79.98414 -19.67217 -2.65106 -21.3414 72.69641 79.31765 23.49062 -72.38185 -33.82676 1.90106 -2.56417 2.44131 4.54783 -7.24521 -2.12628 -2.75794 -6.38481 -1.45394 4.69351 1.1868 -8.2191 6.16425 3.69064 4.86242
0.00023 0.57924 6e-05 181.8323 0 -3.68922 1.46513 2.63039 -3.59412 -23.31629 3.19526 2.08718 -22.86762 -70.34191 -78.49151 26.12059 79.95052 -19.67553 -2.64354 -21.30555 72.67161 79.27429 23.49773 -72.41135 -33.80293 1.89988 -2.54733 2.43985 4.55312 -7.26353 -2.12646 -2.75705 -6.39031 -1.44252 4.69198 1.19187 -8.22539 6.1664 3.69064 4.85404
0.00033 0.57925 0.00011 181.82806 0 -3.69216 1.44709 2.65043 -3.58362 -23.27867 3.19092 2.09643 -22.89326 -70.34538 -78.50138 26.1357 79.90953 -19.6746 -2.63754 -21.28709 72.64816 79.24851 23.50984 -72.45231 -33.77559 1.89855 -2.5281 2.43818 4.56181 -7.28066 -2.13031 -2.7555 -6.39396 -1.43381 4.69043 1.2053 -8.22556 6.16913 3.69036 4.84464
0.00042 0.57925 0.00016 181.8274 0 -3.69445 1.43148 2.66805 -3.57604 -23.24598 3.1892 2.10384 -22.91623 -70.35088 -78.51104 26.14858 79.87397 -19.67548 -2.63142 -21.25874 72.6229 79.21345 23.51956 -72.48686 -33.74962 1.89766 -2.51014 2.4365 4.56565 -7.2981 -2.13221 -2.75404 -6.39582 -1.42359 4.68893 1.21461 -8.22891 6.17298 3.69057 4.8359
0.00052 0.57926 0.00022 181.82491 0 -3.69711 1.41664 2.68748 -3.56604 -23.20801 3.18259 2.11173 -22.94346 -70.352 -78.52575 26.16303 79.82947 -19.67697 -2.623 -21.23864 72.60273 79.18368 23.52958 -72.52626 -33.72459 1.89526 -2.49138 2.43523 4.5826 -7.31656 -2.1352 -2.75338 -6.40811 -1.41453 4.68725 1.22529 -8.23062 6.17142 3.68935 4.82633
0.00061 0.57926 0.00026 181.82446 0 -3.69931 1.39881 2.70416 -3.55976 -23.17926 3.18538 2.11948 -22.96249 -70.36168 -78.52945 26.17521 79.80203 -19.67615 -2.61962 -21.20567 72.57222 79.14731 23.54041 -72.55859 -33.69679 1.89589 -2.47377 2.43311 4.57407 -7.33254 -2.13691 -2.75097 -6.39906 -1.40375 4.68595 1.23509 -8.23423 6.18076 3.69093 4.81826
0.00072 0.57927 0.00028 181.83268 0 -3.69978 1.37425 2.71227 -3.56604 -23.1765 3.21508 2.12617 -22.95975 -70.39577 -78.503 26.1799 79.8219 -19.6702 -2.63063 -21.13106 72.51332 79.086 23.55005 -72.56576 -33.66194 1.9057 -2.45956 2.42811 4.48558 -7.34274 -2.13328 -2.74325 -6.32435 -1.38694 4.68558 1.24031 -8.24513 6.22454 3.70139 4.81439
0.00082 0.57927 0.00028 181.84298 0 -3.69977 1.34688 2.71742 -3.57608 -23.18358 3.25429 2.13253 -22.94819 -70.43846 -78.46554 26.18223 79.85938 -19.66203 -2.64652 -21.0431 72.44388 79.01781 23.56074 -72.5659 -33.62442 1.91843 -2.44667 2.42235 4.37283 -7.35036 -2.12838 -2.73389 -6.22944 -1.36843 4.68561 1.24435 -8.25805 6.27851 3.71451 4.81208
0.00092 0.57927 0.00029 181.85141 0 -3.70008 1.3207 2.72388 -3.58369 -23.18704 3.28904 2.13888 -22.93967 -70.47713 -78.43337 26.18575 79.88997 -19.65477 -2.65959 -20.96265 72.37891 78.95447 23.57237 -72.57118 -33.58838 1.92931 -2.43337 2.41732 4.27712 -7.35866 -2.12468 -2.72572 -6.14863 -1.35111 4.68555 1.24904 -8.2697 6.32483 3.7257 4.80916
0.00103 0.57928 0.0003 181.86336 0 -3.70003 1.29461 2.73073 -3.59405 -23.18649 3.32433 2.14606 -22.93584 -70.51643 -78.40012 26.1888 79.91603 -19.64784 -2.67516 -20.87733 72.31526 78.88484 23.57815 -72.56884 -33.55136 1.94235 -2.41911 2.41068 4.15672 -7.369 -2.11858 -2.7157 -6.04745 -1.33212 4.68514 1.25366 -8.28264 6.38366 3.73986 4.8058
0.00113 0.57928 0.00031 181.86876 0 -3.70057 1.26782 2.73591 -3.59978 -23.19691 3.36071 2.15133 -22.91949 -70.55619 -78.36626 26.19235 79.95528 -19.63971 -2.68677 -20.79796 72.24642 78.826 23.59635 -72.58031 -33.51547 1.95163 -2.40727 2.40718 4.08118 -7.3745 -2.11701 -2.7091 -5.98335 -1.31617 4.68553 1.25789 -8.29343 6.41916 3.74855 4.80374
0.00121 0.57929 0.0003 181.85381 0 -3.70321 1.23925 2.738 -3.59068 -23.23364 3.3985 2.15176 -22.87619 -70.59753 -78.33573 26.19692 80.03148 -19.62922 -2.68539 -20.74518 72.16501 78.80257 23.64869 -72.63365 -33.48625 1.94944 -2.40122 2.41298 4.14209 -7.36731 -2.12923 -2.71267 -6.03146 -1.30896 4.68813 1.26263 -8.29811 6.38515 3.74096 4.80474
0.00128 0.57929 0.00028 181.83256 0 -3.7064 1.21019 2.73835 -3.57704 -23.28136 3.43692 2.15018 -22.81964 -70.63857 -78.30456 26.20236 80.11962 -19.61754 -2.68002 -20.69765 72.07878 78.78954 23.71373 -72.70073 -33.45783 1.94343 -2.39767 2.42191 4.24781 -7.35539 -2.14586 -2.71968 -6.11675 -1.30484 4.69149 1.26672 -8.30057 6.3278 3.7279 4.80704
0.00135 0.57929 0.00027 181.81542 0 -3.70912 1.18175 2.73894 -3.56623 -23.32519 3.47462 2.14926 -22.76546 -70.67816 -78.27213 26.20786 80.19896 -19.60618 -2.67705 -20.64285 71.99541 78.76893 23.77252 -72.76004 -33.42703 1.93942 -2.39336 2.42914 4.32853 -7.34558 -2.15985 -2.7249 -6.18175 -1.29935 4.69444 1.27029 -8.30382 6.28282 3.71771 4.80879
0.00143 0.57929 0.00025 181.79313 0 -3.71274 1.15155 2.74172 -3.55224 -23.36489 3.51456 2.14945 -22.72607 -70.72478 -78.24574 26.21087 80.29251 -19.59571 -2.67176 -20.60741 71.90927 78.75964 23.83226 -72.82536 -33.40426 1.93441 -2.38753 2.43748 4.42764 -7.33571 -2.17654 -2.73102 -6.26008 -1.2937 4.6977 1.27739 -8.3079 6.23073 3.70596 4.8103
0.00149 0.57929 0.00023 181.77999 0 -3.71464 1.12492 2.73961 -3.54382 -23.4154 3.54978 2.1468 -22.65324 -70.75653 -78.20689 26.21988 80.35987 -19.58309 -2.67031 -20.53408 71.82735 78.72996 23.89443 -72.88178 -33.36548 1.93051 -2.3854 2.44429 4.49986 -7.32503 -2.18861 -2.73612 -6.32011 -1.28907 4.70046 1.27684 -8.30992 6.18779 3.69619 4.81276
0.0015 0.57929 0.00018 181.79393 0 -3.71162 1.10848 2.7242 -3.55125 -23.49543 3.57244 2.13701 -22.48781 -70.74761 -78.13267 26.24103 80.34545 -19.56535 -2.68016 -20.34642 71.76269 78.63601 23.94878 -72.90795 -33.27806 1.9309 -2.39334 2.44596 4.4831 -7.31204 -2.18711 -2.73727 -6.31723 -1.2871 4.70186 1.25682 -8.30492 6.17573 3.69261 4.81606
0.0015 0.57928 0.00012 181.81722 0 -3.70688 1.09561 2.70401 -3.56455 -23.58542 3.59017 2.12437 -22.28991 -70.72358 -78.04617 26.26938 80.30563 -19.54554 -2.69407 -20.12219 71.70146 78.52229 24.00765 -72.92512 -33.17528 1.93249 -2.40484 2.44599 4.43853 -7.29867 -2.18074 -2.73733 -6.29532 -1.28593 4.70269 1.22889 -8.29826 6.17365 3.69132 4.8205
0.00151 0.57928 6e-05 181.83606 0 -3.70297 1.08102 2.6862 -3.57556 -23.66933 3.60968 2.11289 -22.1092 -70.7063 -77.96612 26.29675 80.28132 -19.52615 -2.70626 -19.92017 71.63605 78.42113 24.07146 -72.948 -33.08233 1.93332 -2.41443 2.44688 4.40931 -7.2863 -2.17645 -2.7381 -6.28442 -1.28398 4.70366 1.20353 -8.29362 6.16699 3.6894 4.82538
0.00152 0.57927 0 181.85556 0 -3.69885 1.0669 2.66743 -3.58478 -23.76039 3.63111 2.10194 -21.91766 -70.68976 -77.88247 26.31292 80.23972 -19.5083 -2.71768 -19.6943 71.58236 78.30496 24.10464 -72.96467 -32.97744 1.93485 -2.42535 2.44746 4.3703 -7.27021 -2.17295 -2.73809 -6.26502 -1.28388 4.70519 1.18226 -8.28363 6.15966 3.68561 4.82637
0.00151 0.57927 -5e-05 181.87592 0 -3.69475 1.05257 2.64957 -3.59921 -23.83853 3.64743 2.0892 -21.74123 -70.66778 -77.80331 26.35603 80.22916 -19.48751 -2.73185 -19.50991 71.50411 78.21555 24.2045 -72.99178 -32.89368 1.93534 -2.43428 2.44819 4.34438 -7.26192 -2.16652 -2.73941 -6.2581 -1.28012 4.70536 1.15089 -8.28435 6.15645 3.68628 4.83556
0.00146 0.57926 -7e-05 181.89716 0 -3.69128 1.03755 2.63528 -3.62656 -23.88032 3.65023 2.07253 -21.61356 -70.63687 -77.74011 26.4574 80.29939 -19.45316 -2.75161 -19.44501 71.36554 78.20259 24.47159 -73.05215 -32.87236 1.93216 -2.43734 2.45042 4.36231 -7.27432 -2.15368 -2.74467 -6.2919 -1.26555 4.70241 1.0911 -8.31561 6.1618 3.69921 4.86846
0.0014 0.57925 -9e-05 181.91885 0 -3.68785 1.02203 2.62211 -3.65907 -23.90827 3.64817 2.05407 -21.50221 -70.60033 -77.68149 26.58969 80.40337 -19.41729 -2.77419 -19.42429 71.20023 78.21789 24.80931 -73.12334 -32.87248 1.92806 -2.43819 2.45273 4.39397 -7.29472 -2.13795 -2.7513 -6.33843 -1.24736 4.69803 1.02185 -8.35759 6.17112 3.7165 4.9093
0.00134 0.57924 -0.00011 181.93984 0 -3.68431 1.00631 2.60849 -3.68918 -23.94145 3.64876 2.03631 -21.38439 -70.56514 -77.62077 26.71552 80.49962 -19.38566 -2.7962 -19.38538 71.04221 78.22131 25.12398 -73.18744 -32.86291 1.92468 -2.43968 2.45458 4.41854 -7.31215 -2.12317 -2.75731 -6.37789 -1.23112 4.694 0.95856 -8.39439 6.179 3.73149 4.9456
0.00128 0.57923 -0.00014 181.96318 0 -3.6811 0.99267 2.59439 -3.71938 -23.97987 3.64735 2.01911 -21.26247 -70.53556 -77.56079 26.80392 80.56444 -19.33788 -2.81546 -19.33536 70.90643 78.21881 25.39737 -73.25844 -32.85376 1.91984 -2.44275 2.45818 4.44581 -7.32693 -2.10972 -2.76329 -6.4221 -1.21359 4.69122 0.8881 -8.43259 6.18574 3.7479 4.98588
0.00122 0.57921 -0.00014 181.98169 0 -3.67724 0.97435 2.5817 -3.75097 -24.00342 3.64898 2.0001 -21.15208 -70.49188 -77.49915 26.98457 80.70107 -19.32477 -2.84093 -19.32178 70.71596 78.23708 25.77752 -73.32024 -32.84756 1.91808 -2.44209 2.45813 4.47099 -7.3489 -2.09294 -2.76964 -6.4597 -1.19794 4.68547 0.83031 -8.47026 6.1956 3.76236 5.01974
0.00114 0.5792 -7e-05 181.9859 0 -3.67164 0.9447 2.57203 -3.78128 -23.99383 3.66058 1.97886 -21.08026 -70.4215 -77.44282 27.35379 81.04533 -19.39682 -2.8838 -19.37685 70.39762 78.29211 26.40149 -73.33279 -32.85726 1.92295 -2.43036 2.44844 4.48777 -7.39089 -2.0671 -2.77688 -6.47579 -1.18765 4.67229 0.81085 -8.5055 6.21372 3.7704 5.03391
0.00106 0.57919 4e-05 181.98528 0 -3.66539 0.91011 2.56389 -3.81345 -23.96894 3.6754 1.95548 -21.01705 -70.33516 -77.38212 27.82673 81.45762 -19.50625 -2.93259 -19.47011 70.02193 78.36885 27.13737 -73.33981 -32.86707 1.93138 -2.41517 2.43498 4.50199 -7.43944 -2.03816 -2.7844 -6.48488 -1.17952 4.65608 0.80436 -8.53955 6.23469 3.77631 5.04137
0.00097 0.57918 0.00013 181.98748 0 -3.65941 0.87677 2.55546 -3.84735 -23.94791 3.68845 1.93148 -20.94379 -70.24913 -77.31696 28.28928 81.82723 -19.60525 -2.97804 -19.56138 69.66177 78.44583 27.84327 -73.36318 -32.8681 1.93954 -2.40243 2.42298 4.51701 -7.48358 -2.01101 -2.79168 -6.49738 -1.17087 4.64102 0.79126 -8.57307 6.2539 3.78315 5.0519
0.00089 0.57916 0.00021 181.98733 0 -3.65354 0.84748 2.54535 -3.8708 -23.93909 3.70244 1.91392 -20.89943 -70.19231 -77.28139 28.59354 82.24729 -19.67492 -3.02642 -19.59388 69.34568 78.48468 28.46089 -73.32812 -32.90581 1.94187 -2.38594 2.4121 4.53394 -7.53402 -1.98208 -2.79952 -6.50944 -1.16008 4.62695 0.78068 -8.61148 6.27522 3.79025 5.06253
